<mxfile host="app.diagrams.net" modified="2020-04-14T05:51:30.374Z" agent="5.0 (X11; Linux x86_64) AppleWebKit/537.36 (KHTML, like Gecko) Chrome/81.0.4044.92 Safari/537.36" etag="Yp5GQYTNkLHihpYeBEdd" version="12.9.11" type="github">
  <diagram id="yP4FQTdsY-qNNl01PGjK" name="Page-1">
    <mxGraphModel dx="1865" dy="591" grid="1" gridSize="10" guides="1" tooltips="1" connect="1" arrows="1" fold="1" page="1" pageScale="1" pageWidth="827" pageHeight="1169" math="0" shadow="0">
      <root>
        <mxCell id="0" />
        <mxCell id="1" parent="0" />
        <mxCell id="8L-nOKBcuhNVsoPlVf19-2" value="开始" style="ellipse;whiteSpace=wrap;html=1;aspect=fixed;" parent="1" vertex="1">
          <mxGeometry x="285" y="90" width="50" height="50" as="geometry" />
        </mxCell>
        <mxCell id="8L-nOKBcuhNVsoPlVf19-3" value="结束" style="ellipse;whiteSpace=wrap;html=1;aspect=fixed;" parent="1" vertex="1">
          <mxGeometry x="285" y="670" width="50" height="50" as="geometry" />
        </mxCell>
        <mxCell id="8L-nOKBcuhNVsoPlVf19-4" value="接受请求" style="rounded=1;whiteSpace=wrap;html=1;" parent="1" vertex="1">
          <mxGeometry x="250" y="190" width="120" height="60" as="geometry" />
        </mxCell>
        <mxCell id="8L-nOKBcuhNVsoPlVf19-5" value="验证身份" style="rhombus;whiteSpace=wrap;html=1;" parent="1" vertex="1">
          <mxGeometry x="270" y="310" width="80" height="80" as="geometry" />
        </mxCell>
        <mxCell id="8L-nOKBcuhNVsoPlVf19-6" value="后续处理" style="rounded=1;whiteSpace=wrap;html=1;" parent="1" vertex="1">
          <mxGeometry x="250" y="450" width="120" height="60" as="geometry" />
        </mxCell>
        <mxCell id="8L-nOKBcuhNVsoPlVf19-7" value="" style="endArrow=classic;html=1;exitX=1;exitY=0.5;exitDx=0;exitDy=0;entryX=1;entryY=0.5;entryDx=0;entryDy=0;" parent="1" source="8L-nOKBcuhNVsoPlVf19-5" target="8L-nOKBcuhNVsoPlVf19-8" edge="1">
          <mxGeometry width="50" height="50" relative="1" as="geometry">
            <mxPoint x="445" y="370" as="sourcePoint" />
            <mxPoint x="495" y="320" as="targetPoint" />
            <Array as="points">
              <mxPoint x="425" y="350" />
              <mxPoint x="425" y="590" />
            </Array>
          </mxGeometry>
        </mxCell>
        <mxCell id="8L-nOKBcuhNVsoPlVf19-9" value="不通过" style="edgeLabel;html=1;align=center;verticalAlign=middle;resizable=0;points=[];" parent="8L-nOKBcuhNVsoPlVf19-7" vertex="1" connectable="0">
          <mxGeometry x="-0.8551" relative="1" as="geometry">
            <mxPoint as="offset" />
          </mxGeometry>
        </mxCell>
        <mxCell id="8L-nOKBcuhNVsoPlVf19-8" value="响应请求" style="rounded=1;whiteSpace=wrap;html=1;" parent="1" vertex="1">
          <mxGeometry x="250" y="560" width="120" height="60" as="geometry" />
        </mxCell>
        <mxCell id="8L-nOKBcuhNVsoPlVf19-10" value="" style="endArrow=classic;html=1;exitX=0.5;exitY=1;exitDx=0;exitDy=0;entryX=0.5;entryY=0;entryDx=0;entryDy=0;" parent="1" source="8L-nOKBcuhNVsoPlVf19-5" target="8L-nOKBcuhNVsoPlVf19-6" edge="1">
          <mxGeometry width="50" height="50" relative="1" as="geometry">
            <mxPoint x="155" y="440" as="sourcePoint" />
            <mxPoint x="205" y="390" as="targetPoint" />
          </mxGeometry>
        </mxCell>
        <mxCell id="8L-nOKBcuhNVsoPlVf19-12" value="通过" style="edgeLabel;html=1;align=center;verticalAlign=middle;resizable=0;points=[];" parent="8L-nOKBcuhNVsoPlVf19-10" vertex="1" connectable="0">
          <mxGeometry x="-0.5133" y="-1" relative="1" as="geometry">
            <mxPoint as="offset" />
          </mxGeometry>
        </mxCell>
        <mxCell id="8L-nOKBcuhNVsoPlVf19-11" value="" style="endArrow=classic;html=1;exitX=0.5;exitY=1;exitDx=0;exitDy=0;entryX=0.5;entryY=0;entryDx=0;entryDy=0;" parent="1" source="8L-nOKBcuhNVsoPlVf19-4" target="8L-nOKBcuhNVsoPlVf19-5" edge="1">
          <mxGeometry width="50" height="50" relative="1" as="geometry">
            <mxPoint x="145" y="350" as="sourcePoint" />
            <mxPoint x="195" y="300" as="targetPoint" />
          </mxGeometry>
        </mxCell>
        <mxCell id="8L-nOKBcuhNVsoPlVf19-13" value="" style="endArrow=classic;html=1;exitX=0.5;exitY=1;exitDx=0;exitDy=0;entryX=0.5;entryY=0;entryDx=0;entryDy=0;" parent="1" source="8L-nOKBcuhNVsoPlVf19-6" target="8L-nOKBcuhNVsoPlVf19-8" edge="1">
          <mxGeometry width="50" height="50" relative="1" as="geometry">
            <mxPoint x="85" y="560" as="sourcePoint" />
            <mxPoint x="135" y="510" as="targetPoint" />
          </mxGeometry>
        </mxCell>
        <mxCell id="8L-nOKBcuhNVsoPlVf19-14" value="" style="endArrow=classic;html=1;exitX=0.5;exitY=1;exitDx=0;exitDy=0;entryX=0.5;entryY=0;entryDx=0;entryDy=0;" parent="1" source="8L-nOKBcuhNVsoPlVf19-2" target="8L-nOKBcuhNVsoPlVf19-4" edge="1">
          <mxGeometry width="50" height="50" relative="1" as="geometry">
            <mxPoint x="105" y="270" as="sourcePoint" />
            <mxPoint x="155" y="220" as="targetPoint" />
          </mxGeometry>
        </mxCell>
        <mxCell id="8L-nOKBcuhNVsoPlVf19-15" value="" style="endArrow=classic;html=1;exitX=0.5;exitY=1;exitDx=0;exitDy=0;entryX=0.5;entryY=0;entryDx=0;entryDy=0;" parent="1" source="8L-nOKBcuhNVsoPlVf19-8" target="8L-nOKBcuhNVsoPlVf19-3" edge="1">
          <mxGeometry width="50" height="50" relative="1" as="geometry">
            <mxPoint x="145" y="650" as="sourcePoint" />
            <mxPoint x="195" y="600" as="targetPoint" />
          </mxGeometry>
        </mxCell>
        <mxCell id="8L-nOKBcuhNVsoPlVf19-56" value="用户" style="whiteSpace=wrap;html=1;align=center;" parent="1" vertex="1">
          <mxGeometry x="115" y="1040" width="100" height="40" as="geometry" />
        </mxCell>
        <mxCell id="8L-nOKBcuhNVsoPlVf19-57" value="id" style="ellipse;whiteSpace=wrap;html=1;align=center;fontStyle=4;" parent="1" vertex="1">
          <mxGeometry x="-20" y="990" width="100" height="40" as="geometry" />
        </mxCell>
        <mxCell id="8L-nOKBcuhNVsoPlVf19-58" value="username" style="ellipse;whiteSpace=wrap;html=1;align=center;fontStyle=4;" parent="1" vertex="1">
          <mxGeometry x="150" y="960" width="100" height="40" as="geometry" />
        </mxCell>
        <mxCell id="8L-nOKBcuhNVsoPlVf19-59" value="openid" style="ellipse;whiteSpace=wrap;html=1;align=center;fontStyle=4;" parent="1" vertex="1">
          <mxGeometry y="1110" width="100" height="40" as="geometry" />
        </mxCell>
        <mxCell id="8L-nOKBcuhNVsoPlVf19-63" value="" style="endArrow=none;html=1;rounded=0;exitX=0.75;exitY=0;exitDx=0;exitDy=0;entryX=0.5;entryY=1;entryDx=0;entryDy=0;" parent="1" source="8L-nOKBcuhNVsoPlVf19-56" target="8L-nOKBcuhNVsoPlVf19-58" edge="1">
          <mxGeometry relative="1" as="geometry">
            <mxPoint x="350" y="1080" as="sourcePoint" />
            <mxPoint x="510" y="1080" as="targetPoint" />
          </mxGeometry>
        </mxCell>
        <mxCell id="8L-nOKBcuhNVsoPlVf19-64" value="" style="endArrow=none;html=1;rounded=0;exitX=0.25;exitY=0;exitDx=0;exitDy=0;entryX=1;entryY=1;entryDx=0;entryDy=0;" parent="1" source="8L-nOKBcuhNVsoPlVf19-56" target="8L-nOKBcuhNVsoPlVf19-57" edge="1">
          <mxGeometry relative="1" as="geometry">
            <mxPoint x="200" y="1060" as="sourcePoint" />
            <mxPoint x="210" y="1010" as="targetPoint" />
          </mxGeometry>
        </mxCell>
        <mxCell id="8L-nOKBcuhNVsoPlVf19-65" value="" style="endArrow=none;html=1;rounded=0;exitX=0.25;exitY=1;exitDx=0;exitDy=0;entryX=1;entryY=0;entryDx=0;entryDy=0;" parent="1" source="8L-nOKBcuhNVsoPlVf19-56" target="8L-nOKBcuhNVsoPlVf19-59" edge="1">
          <mxGeometry relative="1" as="geometry">
            <mxPoint x="210" y="1070" as="sourcePoint" />
            <mxPoint x="220" y="1020" as="targetPoint" />
          </mxGeometry>
        </mxCell>
        <mxCell id="8L-nOKBcuhNVsoPlVf19-66" value="vehicle" style="whiteSpace=wrap;html=1;align=center;" parent="1" vertex="1">
          <mxGeometry x="730" y="1410" width="100" height="40" as="geometry" />
        </mxCell>
        <mxCell id="8L-nOKBcuhNVsoPlVf19-67" value="基本配置" style="ellipse;whiteSpace=wrap;html=1;align=center;" parent="1" vertex="1">
          <mxGeometry x="600" y="1260" width="100" height="40" as="geometry" />
        </mxCell>
        <mxCell id="8L-nOKBcuhNVsoPlVf19-68" value="vehicle_info" style="whiteSpace=wrap;html=1;align=center;" parent="1" vertex="1">
          <mxGeometry x="727.78" y="1040.5" width="100" height="40" as="geometry" />
        </mxCell>
        <mxCell id="8L-nOKBcuhNVsoPlVf19-69" value="VIN" style="ellipse;whiteSpace=wrap;html=1;align=center;" parent="1" vertex="1">
          <mxGeometry x="630" y="920" width="100" height="40" as="geometry" />
        </mxCell>
        <mxCell id="8L-nOKBcuhNVsoPlVf19-70" value="license_no" style="ellipse;whiteSpace=wrap;html=1;align=center;" parent="1" vertex="1">
          <mxGeometry x="770" y="920" width="100" height="40" as="geometry" />
        </mxCell>
        <mxCell id="8L-nOKBcuhNVsoPlVf19-71" value="id" style="ellipse;whiteSpace=wrap;html=1;align=center;fontStyle=4;" parent="1" vertex="1">
          <mxGeometry x="910" y="1100" width="100" height="40" as="geometry" />
        </mxCell>
        <mxCell id="8L-nOKBcuhNVsoPlVf19-72" value="" style="endArrow=none;html=1;rounded=0;entryX=0;entryY=0.5;entryDx=0;entryDy=0;exitX=1;exitY=0.75;exitDx=0;exitDy=0;" parent="1" source="8L-nOKBcuhNVsoPlVf19-68" target="8L-nOKBcuhNVsoPlVf19-71" edge="1">
          <mxGeometry relative="1" as="geometry">
            <mxPoint x="840" y="1090" as="sourcePoint" />
            <mxPoint x="573.78" y="1000.5" as="targetPoint" />
          </mxGeometry>
        </mxCell>
        <mxCell id="8L-nOKBcuhNVsoPlVf19-73" value="" style="endArrow=none;html=1;rounded=0;exitX=0.25;exitY=0;exitDx=0;exitDy=0;entryX=0.5;entryY=1;entryDx=0;entryDy=0;" parent="1" source="8L-nOKBcuhNVsoPlVf19-68" target="8L-nOKBcuhNVsoPlVf19-69" edge="1">
          <mxGeometry relative="1" as="geometry">
            <mxPoint x="573.78" y="1060.5" as="sourcePoint" />
            <mxPoint x="583.78" y="1010.5" as="targetPoint" />
          </mxGeometry>
        </mxCell>
        <mxCell id="8L-nOKBcuhNVsoPlVf19-74" value="" style="endArrow=none;html=1;rounded=0;exitX=0.75;exitY=0;exitDx=0;exitDy=0;entryX=0.5;entryY=1;entryDx=0;entryDy=0;" parent="1" source="8L-nOKBcuhNVsoPlVf19-68" target="8L-nOKBcuhNVsoPlVf19-70" edge="1">
          <mxGeometry relative="1" as="geometry">
            <mxPoint x="583.78" y="1070.5" as="sourcePoint" />
            <mxPoint x="833.78" y="980.5" as="targetPoint" />
          </mxGeometry>
        </mxCell>
        <mxCell id="8L-nOKBcuhNVsoPlVf19-75" value="id" style="ellipse;whiteSpace=wrap;html=1;align=center;fontStyle=4;" parent="1" vertex="1">
          <mxGeometry x="630" y="1590" width="100" height="40" as="geometry" />
        </mxCell>
        <mxCell id="8L-nOKBcuhNVsoPlVf19-77" value="发动型号" style="ellipse;whiteSpace=wrap;html=1;align=center;" parent="1" vertex="1">
          <mxGeometry x="960" y="1350" width="100" height="40" as="geometry" />
        </mxCell>
        <mxCell id="8L-nOKBcuhNVsoPlVf19-78" value="品牌" style="ellipse;whiteSpace=wrap;html=1;align=center;" parent="1" vertex="1">
          <mxGeometry x="960" y="1429" width="100" height="40" as="geometry" />
        </mxCell>
        <mxCell id="8L-nOKBcuhNVsoPlVf19-79" value="车系" style="ellipse;whiteSpace=wrap;html=1;align=center;" parent="1" vertex="1">
          <mxGeometry x="860" y="1570" width="100" height="40" as="geometry" />
        </mxCell>
        <mxCell id="8L-nOKBcuhNVsoPlVf19-80" value="排放标准" style="ellipse;whiteSpace=wrap;html=1;align=center;" parent="1" vertex="1">
          <mxGeometry x="740" y="1590" width="100" height="40" as="geometry" />
        </mxCell>
        <mxCell id="8L-nOKBcuhNVsoPlVf19-81" value="年款" style="ellipse;whiteSpace=wrap;html=1;align=center;" parent="1" vertex="1">
          <mxGeometry x="540" y="1540" width="100" height="40" as="geometry" />
        </mxCell>
        <mxCell id="8L-nOKBcuhNVsoPlVf19-84" value="款型" style="ellipse;whiteSpace=wrap;html=1;align=center;" parent="1" vertex="1">
          <mxGeometry x="910" y="1270" width="100" height="40" as="geometry" />
        </mxCell>
        <mxCell id="8L-nOKBcuhNVsoPlVf19-85" value="注册日期" style="ellipse;whiteSpace=wrap;html=1;align=center;" parent="1" vertex="1">
          <mxGeometry x="510" y="1300" width="100" height="40" as="geometry" />
        </mxCell>
        <mxCell id="8L-nOKBcuhNVsoPlVf19-86" value="指导价" style="ellipse;whiteSpace=wrap;html=1;align=center;" parent="1" vertex="1">
          <mxGeometry x="510" y="1470" width="100" height="40" as="geometry" />
        </mxCell>
        <mxCell id="8L-nOKBcuhNVsoPlVf19-87" value="驱动形式" style="ellipse;whiteSpace=wrap;html=1;align=center;" parent="1" vertex="1">
          <mxGeometry x="927" y="1510" width="100" height="40" as="geometry" />
        </mxCell>
        <mxCell id="8L-nOKBcuhNVsoPlVf19-88" value="" style="endArrow=none;html=1;rounded=0;exitX=1;exitY=0.5;exitDx=0;exitDy=0;entryX=0;entryY=0.5;entryDx=0;entryDy=0;" parent="1" source="8L-nOKBcuhNVsoPlVf19-66" target="8L-nOKBcuhNVsoPlVf19-78" edge="1">
          <mxGeometry relative="1" as="geometry">
            <mxPoint x="859" y="1500" as="sourcePoint" />
            <mxPoint x="900" y="1460" as="targetPoint" />
          </mxGeometry>
        </mxCell>
        <mxCell id="8L-nOKBcuhNVsoPlVf19-89" value="" style="endArrow=none;html=1;rounded=0;exitX=1;exitY=0.5;exitDx=0;exitDy=0;entryX=0;entryY=1;entryDx=0;entryDy=0;" parent="1" source="8L-nOKBcuhNVsoPlVf19-66" target="8L-nOKBcuhNVsoPlVf19-77" edge="1">
          <mxGeometry relative="1" as="geometry">
            <mxPoint x="820" y="1420" as="sourcePoint" />
            <mxPoint x="910" y="1470" as="targetPoint" />
          </mxGeometry>
        </mxCell>
        <mxCell id="8L-nOKBcuhNVsoPlVf19-90" value="" style="endArrow=none;html=1;rounded=0;exitX=0.5;exitY=1;exitDx=0;exitDy=0;entryX=1;entryY=0;entryDx=0;entryDy=0;" parent="1" source="8L-nOKBcuhNVsoPlVf19-84" target="8L-nOKBcuhNVsoPlVf19-66" edge="1">
          <mxGeometry relative="1" as="geometry">
            <mxPoint x="830" y="1430" as="sourcePoint" />
            <mxPoint x="920" y="1480" as="targetPoint" />
          </mxGeometry>
        </mxCell>
        <mxCell id="8L-nOKBcuhNVsoPlVf19-91" value="" style="endArrow=none;html=1;rounded=0;exitX=1;exitY=1;exitDx=0;exitDy=0;entryX=0;entryY=0;entryDx=0;entryDy=0;" parent="1" source="8L-nOKBcuhNVsoPlVf19-66" target="8L-nOKBcuhNVsoPlVf19-87" edge="1">
          <mxGeometry relative="1" as="geometry">
            <mxPoint x="840" y="1440" as="sourcePoint" />
            <mxPoint x="930" y="1490" as="targetPoint" />
          </mxGeometry>
        </mxCell>
        <mxCell id="8L-nOKBcuhNVsoPlVf19-92" value="" style="endArrow=none;html=1;rounded=0;exitX=0.75;exitY=1;exitDx=0;exitDy=0;entryX=0;entryY=0;entryDx=0;entryDy=0;" parent="1" source="8L-nOKBcuhNVsoPlVf19-66" target="8L-nOKBcuhNVsoPlVf19-79" edge="1">
          <mxGeometry relative="1" as="geometry">
            <mxPoint x="850" y="1450" as="sourcePoint" />
            <mxPoint x="940" y="1500" as="targetPoint" />
          </mxGeometry>
        </mxCell>
        <mxCell id="8L-nOKBcuhNVsoPlVf19-93" value="" style="endArrow=none;html=1;rounded=0;exitX=0.5;exitY=1;exitDx=0;exitDy=0;entryX=0.5;entryY=0;entryDx=0;entryDy=0;" parent="1" source="8L-nOKBcuhNVsoPlVf19-66" target="8L-nOKBcuhNVsoPlVf19-80" edge="1">
          <mxGeometry relative="1" as="geometry">
            <mxPoint x="860" y="1460" as="sourcePoint" />
            <mxPoint x="950" y="1510" as="targetPoint" />
          </mxGeometry>
        </mxCell>
        <mxCell id="8L-nOKBcuhNVsoPlVf19-94" value="" style="endArrow=none;html=1;rounded=0;exitX=0.25;exitY=1;exitDx=0;exitDy=0;entryX=0.5;entryY=0;entryDx=0;entryDy=0;" parent="1" source="8L-nOKBcuhNVsoPlVf19-66" target="8L-nOKBcuhNVsoPlVf19-75" edge="1">
          <mxGeometry relative="1" as="geometry">
            <mxPoint x="870" y="1470" as="sourcePoint" />
            <mxPoint x="960" y="1520" as="targetPoint" />
          </mxGeometry>
        </mxCell>
        <mxCell id="8L-nOKBcuhNVsoPlVf19-95" value="" style="endArrow=none;html=1;rounded=0;exitX=0;exitY=1;exitDx=0;exitDy=0;entryX=1;entryY=0;entryDx=0;entryDy=0;" parent="1" source="8L-nOKBcuhNVsoPlVf19-66" target="8L-nOKBcuhNVsoPlVf19-81" edge="1">
          <mxGeometry relative="1" as="geometry">
            <mxPoint x="880" y="1480" as="sourcePoint" />
            <mxPoint x="970" y="1530" as="targetPoint" />
          </mxGeometry>
        </mxCell>
        <mxCell id="8L-nOKBcuhNVsoPlVf19-96" value="" style="endArrow=none;html=1;rounded=0;exitX=0;exitY=0.25;exitDx=0;exitDy=0;entryX=1;entryY=0.5;entryDx=0;entryDy=0;" parent="1" source="8L-nOKBcuhNVsoPlVf19-66" target="8L-nOKBcuhNVsoPlVf19-86" edge="1">
          <mxGeometry relative="1" as="geometry">
            <mxPoint x="890" y="1490" as="sourcePoint" />
            <mxPoint x="980" y="1540" as="targetPoint" />
          </mxGeometry>
        </mxCell>
        <mxCell id="8L-nOKBcuhNVsoPlVf19-97" value="" style="endArrow=none;html=1;rounded=0;exitX=0.25;exitY=0;exitDx=0;exitDy=0;entryX=1;entryY=1;entryDx=0;entryDy=0;" parent="1" source="8L-nOKBcuhNVsoPlVf19-66" target="8L-nOKBcuhNVsoPlVf19-85" edge="1">
          <mxGeometry relative="1" as="geometry">
            <mxPoint x="720" y="1410" as="sourcePoint" />
            <mxPoint x="680" y="1400" as="targetPoint" />
          </mxGeometry>
        </mxCell>
        <mxCell id="8L-nOKBcuhNVsoPlVf19-98" value="" style="endArrow=none;html=1;rounded=0;exitX=0.25;exitY=0;exitDx=0;exitDy=0;entryX=0.5;entryY=1;entryDx=0;entryDy=0;" parent="1" source="8L-nOKBcuhNVsoPlVf19-66" target="8L-nOKBcuhNVsoPlVf19-67" edge="1">
          <mxGeometry relative="1" as="geometry">
            <mxPoint x="730" y="1420" as="sourcePoint" />
            <mxPoint x="690" y="1410" as="targetPoint" />
          </mxGeometry>
        </mxCell>
        <mxCell id="8L-nOKBcuhNVsoPlVf19-99" value="请求量信息" style="whiteSpace=wrap;html=1;align=center;" parent="1" vertex="1">
          <mxGeometry x="115" y="1430" width="100" height="40" as="geometry" />
        </mxCell>
        <mxCell id="8L-nOKBcuhNVsoPlVf19-100" value="id" style="ellipse;whiteSpace=wrap;html=1;align=center;fontStyle=4;" parent="1" vertex="1">
          <mxGeometry x="50" y="1530" width="100" height="40" as="geometry" />
        </mxCell>
        <mxCell id="8L-nOKBcuhNVsoPlVf19-103" value="day_num" style="ellipse;whiteSpace=wrap;html=1;align=center;fontStyle=4;" parent="1" vertex="1">
          <mxGeometry x="164" y="1540" width="100" height="40" as="geometry" />
        </mxCell>
        <mxCell id="8L-nOKBcuhNVsoPlVf19-106" value="" style="endArrow=none;html=1;rounded=0;exitX=0.5;exitY=0;exitDx=0;exitDy=0;entryX=0.25;entryY=1;entryDx=0;entryDy=0;" parent="1" source="8L-nOKBcuhNVsoPlVf19-100" target="8L-nOKBcuhNVsoPlVf19-99" edge="1">
          <mxGeometry relative="1" as="geometry">
            <mxPoint x="90.35533905932743" y="1414.142135623731" as="sourcePoint" />
            <mxPoint x="165" y="1450" as="targetPoint" />
          </mxGeometry>
        </mxCell>
        <mxCell id="8L-nOKBcuhNVsoPlVf19-107" value="" style="endArrow=none;html=1;rounded=0;exitX=0.5;exitY=0;exitDx=0;exitDy=0;entryX=0.75;entryY=1;entryDx=0;entryDy=0;" parent="1" source="8L-nOKBcuhNVsoPlVf19-103" target="8L-nOKBcuhNVsoPlVf19-99" edge="1">
          <mxGeometry relative="1" as="geometry">
            <mxPoint x="100.35533905932743" y="1424.142135623731" as="sourcePoint" />
            <mxPoint x="175" y="1460" as="targetPoint" />
          </mxGeometry>
        </mxCell>
        <mxCell id="8L-nOKBcuhNVsoPlVf19-108" value="请求记录" style="shape=rhombus;perimeter=rhombusPerimeter;whiteSpace=wrap;html=1;align=center;" parent="1" vertex="1">
          <mxGeometry x="105" y="1250" width="120" height="60" as="geometry" />
        </mxCell>
        <mxCell id="8L-nOKBcuhNVsoPlVf19-109" value="create_time" style="ellipse;whiteSpace=wrap;html=1;align=center;" parent="1" vertex="1">
          <mxGeometry x="-20" y="1310" width="100" height="40" as="geometry" />
        </mxCell>
        <mxCell id="8L-nOKBcuhNVsoPlVf19-110" value="id" style="ellipse;whiteSpace=wrap;html=1;align=center;fontStyle=4;" parent="1" vertex="1">
          <mxGeometry x="-20" y="1210" width="100" height="40" as="geometry" />
        </mxCell>
        <mxCell id="8L-nOKBcuhNVsoPlVf19-111" value="req_day_num" style="ellipse;whiteSpace=wrap;html=1;align=center;fontStyle=4;" parent="1" vertex="1">
          <mxGeometry x="215" y="1310" width="100" height="40" as="geometry" />
        </mxCell>
        <mxCell id="8L-nOKBcuhNVsoPlVf19-112" value="" style="endArrow=none;html=1;rounded=0;exitX=1;exitY=1;exitDx=0;exitDy=0;entryX=0.5;entryY=0;entryDx=0;entryDy=0;" parent="1" source="8L-nOKBcuhNVsoPlVf19-108" target="8L-nOKBcuhNVsoPlVf19-111" edge="1">
          <mxGeometry relative="1" as="geometry">
            <mxPoint x="235" y="1450" as="sourcePoint" />
            <mxPoint x="315" y="1450" as="targetPoint" />
          </mxGeometry>
        </mxCell>
        <mxCell id="8L-nOKBcuhNVsoPlVf19-113" value="" style="endArrow=none;html=1;rounded=0;exitX=1;exitY=1;exitDx=0;exitDy=0;entryX=0;entryY=0;entryDx=0;entryDy=0;" parent="1" source="8L-nOKBcuhNVsoPlVf19-110" target="8L-nOKBcuhNVsoPlVf19-108" edge="1">
          <mxGeometry relative="1" as="geometry">
            <mxPoint x="65" y="1249" as="sourcePoint" />
            <mxPoint x="145" y="1249" as="targetPoint" />
          </mxGeometry>
        </mxCell>
        <mxCell id="8L-nOKBcuhNVsoPlVf19-114" value="" style="endArrow=none;html=1;rounded=0;exitX=1;exitY=0;exitDx=0;exitDy=0;entryX=0;entryY=1;entryDx=0;entryDy=0;" parent="1" source="8L-nOKBcuhNVsoPlVf19-109" target="8L-nOKBcuhNVsoPlVf19-108" edge="1">
          <mxGeometry relative="1" as="geometry">
            <mxPoint x="55" y="1320" as="sourcePoint" />
            <mxPoint x="135" y="1320" as="targetPoint" />
          </mxGeometry>
        </mxCell>
        <mxCell id="8L-nOKBcuhNVsoPlVf19-118" value="user_id" style="ellipse;whiteSpace=wrap;html=1;align=center;" parent="1" vertex="1">
          <mxGeometry x="200" y="1200" width="100" height="40" as="geometry" />
        </mxCell>
        <mxCell id="8L-nOKBcuhNVsoPlVf19-119" value="" style="endArrow=none;html=1;rounded=0;entryX=1;entryY=0;entryDx=0;entryDy=0;exitX=0.5;exitY=1;exitDx=0;exitDy=0;" parent="1" source="8L-nOKBcuhNVsoPlVf19-118" target="8L-nOKBcuhNVsoPlVf19-108" edge="1">
          <mxGeometry relative="1" as="geometry">
            <mxPoint x="215" y="1220" as="sourcePoint" />
            <mxPoint x="145" y="1275" as="targetPoint" />
          </mxGeometry>
        </mxCell>
        <mxCell id="8L-nOKBcuhNVsoPlVf19-121" value="" style="endArrow=none;html=1;rounded=0;exitX=0.5;exitY=1;exitDx=0;exitDy=0;entryX=0.5;entryY=0;entryDx=0;entryDy=0;" parent="1" source="8L-nOKBcuhNVsoPlVf19-56" target="8L-nOKBcuhNVsoPlVf19-108" edge="1">
          <mxGeometry relative="1" as="geometry">
            <mxPoint x="140" y="1140" as="sourcePoint" />
            <mxPoint x="300" y="1140" as="targetPoint" />
          </mxGeometry>
        </mxCell>
        <mxCell id="8L-nOKBcuhNVsoPlVf19-139" value="1" style="edgeLabel;html=1;align=center;verticalAlign=middle;resizable=0;points=[];" parent="8L-nOKBcuhNVsoPlVf19-121" vertex="1" connectable="0">
          <mxGeometry x="-0.8725" relative="1" as="geometry">
            <mxPoint as="offset" />
          </mxGeometry>
        </mxCell>
        <mxCell id="8L-nOKBcuhNVsoPlVf19-140" value="n" style="edgeLabel;html=1;align=center;verticalAlign=middle;resizable=0;points=[];" parent="8L-nOKBcuhNVsoPlVf19-121" vertex="1" connectable="0">
          <mxGeometry x="0.84" relative="1" as="geometry">
            <mxPoint as="offset" />
          </mxGeometry>
        </mxCell>
        <mxCell id="8L-nOKBcuhNVsoPlVf19-122" value="" style="endArrow=none;html=1;rounded=0;exitX=0.5;exitY=1;exitDx=0;exitDy=0;entryX=0.5;entryY=0;entryDx=0;entryDy=0;" parent="1" source="8L-nOKBcuhNVsoPlVf19-108" target="8L-nOKBcuhNVsoPlVf19-99" edge="1">
          <mxGeometry relative="1" as="geometry">
            <mxPoint x="130" y="1259" as="sourcePoint" />
            <mxPoint x="200" y="1275" as="targetPoint" />
          </mxGeometry>
        </mxCell>
        <mxCell id="JADIA1cOaScWz0CpT0Dc-1" value="n" style="edgeLabel;html=1;align=center;verticalAlign=middle;resizable=0;points=[];" parent="8L-nOKBcuhNVsoPlVf19-122" vertex="1" connectable="0">
          <mxGeometry x="-0.7" y="1" relative="1" as="geometry">
            <mxPoint as="offset" />
          </mxGeometry>
        </mxCell>
        <mxCell id="JADIA1cOaScWz0CpT0Dc-2" value="m" style="edgeLabel;html=1;align=center;verticalAlign=middle;resizable=0;points=[];" parent="8L-nOKBcuhNVsoPlVf19-122" vertex="1" connectable="0">
          <mxGeometry x="0.6667" y="-1" relative="1" as="geometry">
            <mxPoint as="offset" />
          </mxGeometry>
        </mxCell>
        <mxCell id="8L-nOKBcuhNVsoPlVf19-123" value="mouth_num" style="ellipse;whiteSpace=wrap;html=1;align=center;" parent="1" vertex="1">
          <mxGeometry x="264" y="1410" width="100" height="40" as="geometry" />
        </mxCell>
        <mxCell id="8L-nOKBcuhNVsoPlVf19-124" value="" style="endArrow=none;html=1;rounded=0;exitX=0;exitY=0.5;exitDx=0;exitDy=0;entryX=1;entryY=0.25;entryDx=0;entryDy=0;" parent="1" source="8L-nOKBcuhNVsoPlVf19-123" target="8L-nOKBcuhNVsoPlVf19-99" edge="1">
          <mxGeometry relative="1" as="geometry">
            <mxPoint x="244.64466094067257" y="1535.857864376269" as="sourcePoint" />
            <mxPoint x="205" y="1480" as="targetPoint" />
          </mxGeometry>
        </mxCell>
        <mxCell id="8L-nOKBcuhNVsoPlVf19-129" value="max_num" style="ellipse;whiteSpace=wrap;html=1;align=center;" parent="1" vertex="1">
          <mxGeometry x="270" y="1490" width="100" height="40" as="geometry" />
        </mxCell>
        <mxCell id="8L-nOKBcuhNVsoPlVf19-131" value="&lt;span style=&quot;border-bottom: 1px dotted&quot;&gt;user_id&lt;/span&gt;" style="ellipse;whiteSpace=wrap;html=1;align=center;" parent="1" vertex="1">
          <mxGeometry x="-30" y="1410" width="100" height="40" as="geometry" />
        </mxCell>
        <mxCell id="8L-nOKBcuhNVsoPlVf19-132" value="" style="endArrow=none;html=1;rounded=0;exitX=1;exitY=0.5;exitDx=0;exitDy=0;entryX=0;entryY=0.5;entryDx=0;entryDy=0;" parent="1" source="8L-nOKBcuhNVsoPlVf19-131" target="8L-nOKBcuhNVsoPlVf19-99" edge="1">
          <mxGeometry relative="1" as="geometry">
            <mxPoint x="50" y="1420" as="sourcePoint" />
            <mxPoint x="210" y="1420" as="targetPoint" />
          </mxGeometry>
        </mxCell>
        <mxCell id="8L-nOKBcuhNVsoPlVf19-133" value="" style="endArrow=none;html=1;rounded=0;exitX=0;exitY=0;exitDx=0;exitDy=0;entryX=1;entryY=1;entryDx=0;entryDy=0;" parent="1" source="8L-nOKBcuhNVsoPlVf19-129" target="8L-nOKBcuhNVsoPlVf19-99" edge="1">
          <mxGeometry relative="1" as="geometry">
            <mxPoint x="224" y="1550" as="sourcePoint" />
            <mxPoint x="205" y="1480" as="targetPoint" />
          </mxGeometry>
        </mxCell>
        <mxCell id="8L-nOKBcuhNVsoPlVf19-144" value="查询" style="shape=rhombus;perimeter=rhombusPerimeter;whiteSpace=wrap;html=1;align=center;" parent="1" vertex="1">
          <mxGeometry x="370" y="1040" width="86" height="41" as="geometry" />
        </mxCell>
        <mxCell id="8L-nOKBcuhNVsoPlVf19-146" value="" style="endArrow=none;html=1;rounded=0;exitX=1;exitY=0.5;exitDx=0;exitDy=0;entryX=0;entryY=0.5;entryDx=0;entryDy=0;" parent="1" source="8L-nOKBcuhNVsoPlVf19-56" target="8L-nOKBcuhNVsoPlVf19-144" edge="1">
          <mxGeometry relative="1" as="geometry">
            <mxPoint x="220" y="1130" as="sourcePoint" />
            <mxPoint x="380" y="1130" as="targetPoint" />
          </mxGeometry>
        </mxCell>
        <mxCell id="8L-nOKBcuhNVsoPlVf19-148" value="n" style="edgeLabel;html=1;align=center;verticalAlign=middle;resizable=0;points=[];" parent="8L-nOKBcuhNVsoPlVf19-146" vertex="1" connectable="0">
          <mxGeometry x="-0.3737" y="-1" relative="1" as="geometry">
            <mxPoint as="offset" />
          </mxGeometry>
        </mxCell>
        <mxCell id="8L-nOKBcuhNVsoPlVf19-147" value="" style="endArrow=none;html=1;rounded=0;exitX=1;exitY=0.5;exitDx=0;exitDy=0;entryX=0;entryY=0.5;entryDx=0;entryDy=0;" parent="1" source="8L-nOKBcuhNVsoPlVf19-144" target="8L-nOKBcuhNVsoPlVf19-68" edge="1">
          <mxGeometry relative="1" as="geometry">
            <mxPoint x="400" y="1070.5" as="sourcePoint" />
            <mxPoint x="450" y="1090" as="targetPoint" />
          </mxGeometry>
        </mxCell>
        <mxCell id="8L-nOKBcuhNVsoPlVf19-149" value="m" style="edgeLabel;html=1;align=center;verticalAlign=middle;resizable=0;points=[];" parent="8L-nOKBcuhNVsoPlVf19-147" vertex="1" connectable="0">
          <mxGeometry x="0.3313" relative="1" as="geometry">
            <mxPoint as="offset" />
          </mxGeometry>
        </mxCell>
        <mxCell id="8L-nOKBcuhNVsoPlVf19-150" value="create_time" style="ellipse;whiteSpace=wrap;html=1;align=center;" parent="1" vertex="1">
          <mxGeometry x="315" y="1129" width="100" height="40" as="geometry" />
        </mxCell>
        <mxCell id="8L-nOKBcuhNVsoPlVf19-151" value="user_id" style="ellipse;whiteSpace=wrap;html=1;align=center;" parent="1" vertex="1">
          <mxGeometry x="300" y="960" width="100" height="40" as="geometry" />
        </mxCell>
        <mxCell id="yZNFKtBi-mpQ5BzmzGYL-1" value="" style="endArrow=none;html=1;rounded=0;exitX=0;exitY=0;exitDx=0;exitDy=0;entryX=0.5;entryY=1;entryDx=0;entryDy=0;" parent="1" source="8L-nOKBcuhNVsoPlVf19-144" target="8L-nOKBcuhNVsoPlVf19-151" edge="1">
          <mxGeometry relative="1" as="geometry">
            <mxPoint x="469" y="1060" as="sourcePoint" />
            <mxPoint x="430" y="980" as="targetPoint" />
          </mxGeometry>
        </mxCell>
        <mxCell id="yZNFKtBi-mpQ5BzmzGYL-3" value="" style="endArrow=none;html=1;rounded=0;exitX=0.5;exitY=0;exitDx=0;exitDy=0;entryX=0;entryY=1;entryDx=0;entryDy=0;" parent="1" source="8L-nOKBcuhNVsoPlVf19-150" target="8L-nOKBcuhNVsoPlVf19-144" edge="1">
          <mxGeometry relative="1" as="geometry">
            <mxPoint x="354" y="1189" as="sourcePoint" />
            <mxPoint x="315" y="1109" as="targetPoint" />
          </mxGeometry>
        </mxCell>
        <mxCell id="yZNFKtBi-mpQ5BzmzGYL-4" value="vehicle_info_id" style="ellipse;whiteSpace=wrap;html=1;align=center;" parent="1" vertex="1">
          <mxGeometry x="420" y="960" width="100" height="40" as="geometry" />
        </mxCell>
        <mxCell id="yZNFKtBi-mpQ5BzmzGYL-5" value="" style="endArrow=none;html=1;rounded=0;exitX=1;exitY=0;exitDx=0;exitDy=0;entryX=0.5;entryY=1;entryDx=0;entryDy=0;" parent="1" source="8L-nOKBcuhNVsoPlVf19-144" target="yZNFKtBi-mpQ5BzmzGYL-4" edge="1">
          <mxGeometry relative="1" as="geometry">
            <mxPoint x="395.5" y="1060.25" as="sourcePoint" />
            <mxPoint x="360" y="1010" as="targetPoint" />
          </mxGeometry>
        </mxCell>
        <mxCell id="yZNFKtBi-mpQ5BzmzGYL-6" value="" style="endArrow=none;html=1;rounded=0;exitX=0.5;exitY=1;exitDx=0;exitDy=0;entryX=0.5;entryY=0;entryDx=0;entryDy=0;" parent="1" source="8L-nOKBcuhNVsoPlVf19-68" target="8L-nOKBcuhNVsoPlVf19-66" edge="1">
          <mxGeometry relative="1" as="geometry">
            <mxPoint x="770" y="1150" as="sourcePoint" />
            <mxPoint x="930" y="1150" as="targetPoint" />
          </mxGeometry>
        </mxCell>
        <mxCell id="yZNFKtBi-mpQ5BzmzGYL-7" value="1" style="edgeLabel;html=1;align=center;verticalAlign=middle;resizable=0;points=[];" parent="yZNFKtBi-mpQ5BzmzGYL-6" vertex="1" connectable="0">
          <mxGeometry x="-0.8987" y="-2" relative="1" as="geometry">
            <mxPoint as="offset" />
          </mxGeometry>
        </mxCell>
        <mxCell id="yZNFKtBi-mpQ5BzmzGYL-8" value="n" style="edgeLabel;html=1;align=center;verticalAlign=middle;resizable=0;points=[];" parent="yZNFKtBi-mpQ5BzmzGYL-6" vertex="1" connectable="0">
          <mxGeometry x="0.8338" y="2" relative="1" as="geometry">
            <mxPoint as="offset" />
          </mxGeometry>
        </mxCell>
        <mxCell id="7BqJLyiVurSUGh9soYXR-1" value="create_time" style="ellipse;whiteSpace=wrap;html=1;align=center;" parent="1" vertex="1">
          <mxGeometry x="800" y="1270" width="100" height="40" as="geometry" />
        </mxCell>
        <mxCell id="7BqJLyiVurSUGh9soYXR-2" value="" style="endArrow=none;html=1;rounded=0;exitX=0.5;exitY=1;exitDx=0;exitDy=0;entryX=0.75;entryY=0;entryDx=0;entryDy=0;" parent="1" source="7BqJLyiVurSUGh9soYXR-1" target="8L-nOKBcuhNVsoPlVf19-66" edge="1">
          <mxGeometry relative="1" as="geometry">
            <mxPoint x="750" y="1390" as="sourcePoint" />
            <mxPoint x="715" y="1360" as="targetPoint" />
          </mxGeometry>
        </mxCell>
        <mxCell id="7BqJLyiVurSUGh9soYXR-3" value="create_time" style="ellipse;whiteSpace=wrap;html=1;align=center;" parent="1" vertex="1">
          <mxGeometry x="900" y="980" width="100" height="40" as="geometry" />
        </mxCell>
        <mxCell id="7BqJLyiVurSUGh9soYXR-4" value="" style="endArrow=none;html=1;rounded=0;exitX=1;exitY=0.25;exitDx=0;exitDy=0;entryX=0;entryY=1;entryDx=0;entryDy=0;" parent="1" source="8L-nOKBcuhNVsoPlVf19-68" target="7BqJLyiVurSUGh9soYXR-3" edge="1">
          <mxGeometry relative="1" as="geometry">
            <mxPoint x="812.7799999999997" y="1050.5" as="sourcePoint" />
            <mxPoint x="870" y="980.5" as="targetPoint" />
          </mxGeometry>
        </mxCell>
        <mxCell id="7BqJLyiVurSUGh9soYXR-5" value="create_time" style="ellipse;whiteSpace=wrap;html=1;align=center;fontStyle=4;" parent="1" vertex="1">
          <mxGeometry x="30" y="930.5" width="100" height="40" as="geometry" />
        </mxCell>
        <mxCell id="7BqJLyiVurSUGh9soYXR-6" value="" style="endArrow=none;html=1;rounded=0;exitX=0.5;exitY=0;exitDx=0;exitDy=0;entryX=0.5;entryY=1;entryDx=0;entryDy=0;" parent="1" source="8L-nOKBcuhNVsoPlVf19-56" target="7BqJLyiVurSUGh9soYXR-5" edge="1">
          <mxGeometry relative="1" as="geometry">
            <mxPoint x="150" y="1050" as="sourcePoint" />
            <mxPoint x="60" y="1040" as="targetPoint" />
          </mxGeometry>
        </mxCell>
        <mxCell id="7BqJLyiVurSUGh9soYXR-7" value="create_time" style="ellipse;whiteSpace=wrap;html=1;align=center;fontStyle=4;" parent="1" vertex="1">
          <mxGeometry x="-40" y="1480" width="100" height="40" as="geometry" />
        </mxCell>
        <mxCell id="7BqJLyiVurSUGh9soYXR-8" value="" style="endArrow=none;html=1;rounded=0;exitX=1;exitY=0.5;exitDx=0;exitDy=0;entryX=0;entryY=0.75;entryDx=0;entryDy=0;" parent="1" source="7BqJLyiVurSUGh9soYXR-7" target="8L-nOKBcuhNVsoPlVf19-99" edge="1">
          <mxGeometry relative="1" as="geometry">
            <mxPoint x="80" y="1440" as="sourcePoint" />
            <mxPoint x="125" y="1460" as="targetPoint" />
          </mxGeometry>
        </mxCell>
        <mxCell id="7BqJLyiVurSUGh9soYXR-10" value="" style="endArrow=none;html=1;rounded=0;exitX=0;exitY=0.5;exitDx=0;exitDy=0;entryX=1;entryY=0.5;entryDx=0;entryDy=0;" parent="1" source="8L-nOKBcuhNVsoPlVf19-56" target="7BqJLyiVurSUGh9soYXR-13" edge="1">
          <mxGeometry relative="1" as="geometry">
            <mxPoint x="150" y="1050" as="sourcePoint" />
            <mxPoint x="40" y="1080" as="targetPoint" />
          </mxGeometry>
        </mxCell>
        <mxCell id="7BqJLyiVurSUGh9soYXR-13" value="status" style="ellipse;whiteSpace=wrap;html=1;align=center;" parent="1" vertex="1">
          <mxGeometry x="-70" y="1060" width="100" height="40" as="geometry" />
        </mxCell>
        <mxCell id="7BqJLyiVurSUGh9soYXR-14" value="&lt;b&gt;&lt;font style=&quot;font-size: 43px&quot;&gt;E-R图&lt;/font&gt;&lt;/b&gt;" style="text;html=1;strokeColor=none;fillColor=none;align=center;verticalAlign=middle;whiteSpace=wrap;rounded=0;" parent="1" vertex="1">
          <mxGeometry y="810" width="180" height="20" as="geometry" />
        </mxCell>
        <mxCell id="7BqJLyiVurSUGh9soYXR-16" value="&lt;b&gt;&lt;font style=&quot;font-size: 43px&quot;&gt;身份验证流程图&lt;/font&gt;&lt;/b&gt;" style="text;html=1;strokeColor=none;fillColor=none;align=center;verticalAlign=middle;whiteSpace=wrap;rounded=0;" parent="1" vertex="1">
          <mxGeometry x="10" y="40" width="320" height="20" as="geometry" />
        </mxCell>
        <mxCell id="7BqJLyiVurSUGh9soYXR-17" value="&lt;b&gt;&lt;font style=&quot;font-size: 43px&quot;&gt;车牌查询流程图&lt;/font&gt;&lt;/b&gt;" style="text;html=1;strokeColor=none;fillColor=none;align=center;verticalAlign=middle;whiteSpace=wrap;rounded=0;" parent="1" vertex="1">
          <mxGeometry x="580" y="40" width="320" height="20" as="geometry" />
        </mxCell>
        <mxCell id="7BqJLyiVurSUGh9soYXR-18" value="开始" style="ellipse;whiteSpace=wrap;html=1;aspect=fixed;" parent="1" vertex="1">
          <mxGeometry x="745" y="90" width="50" height="50" as="geometry" />
        </mxCell>
        <mxCell id="7BqJLyiVurSUGh9soYXR-19" value="结束" style="ellipse;whiteSpace=wrap;html=1;aspect=fixed;" parent="1" vertex="1">
          <mxGeometry x="745" y="805" width="50" height="50" as="geometry" />
        </mxCell>
        <mxCell id="7BqJLyiVurSUGh9soYXR-20" value="输入车牌" style="rounded=1;whiteSpace=wrap;html=1;" parent="1" vertex="1">
          <mxGeometry x="710" y="190" width="120" height="60" as="geometry" />
        </mxCell>
        <mxCell id="7BqJLyiVurSUGh9soYXR-21" value="是否有&lt;br&gt;车牌号" style="rhombus;whiteSpace=wrap;html=1;" parent="1" vertex="1">
          <mxGeometry x="730" y="290" width="80" height="80" as="geometry" />
        </mxCell>
        <mxCell id="7BqJLyiVurSUGh9soYXR-23" value="" style="endArrow=classic;html=1;exitX=1;exitY=0.5;exitDx=0;exitDy=0;entryX=0.5;entryY=0;entryDx=0;entryDy=0;" parent="1" source="7BqJLyiVurSUGh9soYXR-21" target="7BqJLyiVurSUGh9soYXR-34" edge="1">
          <mxGeometry width="50" height="50" relative="1" as="geometry">
            <mxPoint x="905" y="350" as="sourcePoint" />
            <mxPoint x="1030" y="410" as="targetPoint" />
            <Array as="points">
              <mxPoint x="1030" y="330" />
            </Array>
          </mxGeometry>
        </mxCell>
        <mxCell id="7BqJLyiVurSUGh9soYXR-24" value="否" style="edgeLabel;html=1;align=center;verticalAlign=middle;resizable=0;points=[];" parent="7BqJLyiVurSUGh9soYXR-23" vertex="1" connectable="0">
          <mxGeometry x="-0.8551" relative="1" as="geometry">
            <mxPoint x="27" as="offset" />
          </mxGeometry>
        </mxCell>
        <mxCell id="7BqJLyiVurSUGh9soYXR-25" value="响应请求" style="rounded=1;whiteSpace=wrap;html=1;" parent="1" vertex="1">
          <mxGeometry x="710" y="695" width="120" height="60" as="geometry" />
        </mxCell>
        <mxCell id="7BqJLyiVurSUGh9soYXR-26" value="" style="endArrow=classic;html=1;exitX=0.5;exitY=1;exitDx=0;exitDy=0;entryX=0.5;entryY=0;entryDx=0;entryDy=0;" parent="1" source="7BqJLyiVurSUGh9soYXR-21" target="7BqJLyiVurSUGh9soYXR-32" edge="1">
          <mxGeometry width="50" height="50" relative="1" as="geometry">
            <mxPoint x="615" y="420" as="sourcePoint" />
            <mxPoint x="780" y="410" as="targetPoint" />
          </mxGeometry>
        </mxCell>
        <mxCell id="7BqJLyiVurSUGh9soYXR-27" value="是" style="edgeLabel;html=1;align=center;verticalAlign=middle;resizable=0;points=[];" parent="7BqJLyiVurSUGh9soYXR-26" vertex="1" connectable="0">
          <mxGeometry x="-0.5133" y="-1" relative="1" as="geometry">
            <mxPoint as="offset" />
          </mxGeometry>
        </mxCell>
        <mxCell id="7BqJLyiVurSUGh9soYXR-28" value="" style="endArrow=classic;html=1;exitX=0.5;exitY=1;exitDx=0;exitDy=0;entryX=0.5;entryY=0;entryDx=0;entryDy=0;" parent="1" source="7BqJLyiVurSUGh9soYXR-20" target="7BqJLyiVurSUGh9soYXR-21" edge="1">
          <mxGeometry width="50" height="50" relative="1" as="geometry">
            <mxPoint x="605" y="350" as="sourcePoint" />
            <mxPoint x="655" y="300" as="targetPoint" />
          </mxGeometry>
        </mxCell>
        <mxCell id="7BqJLyiVurSUGh9soYXR-29" value="" style="endArrow=classic;html=1;entryX=0.5;entryY=0;entryDx=0;entryDy=0;" parent="1" source="7BqJLyiVurSUGh9soYXR-32" target="7BqJLyiVurSUGh9soYXR-25" edge="1">
          <mxGeometry width="50" height="50" relative="1" as="geometry">
            <mxPoint x="770" y="555" as="sourcePoint" />
            <mxPoint x="595" y="555" as="targetPoint" />
          </mxGeometry>
        </mxCell>
        <mxCell id="7BqJLyiVurSUGh9soYXR-33" value="是" style="edgeLabel;html=1;align=center;verticalAlign=middle;resizable=0;points=[];" parent="7BqJLyiVurSUGh9soYXR-29" vertex="1" connectable="0">
          <mxGeometry x="-0.2376" y="1" relative="1" as="geometry">
            <mxPoint as="offset" />
          </mxGeometry>
        </mxCell>
        <mxCell id="7BqJLyiVurSUGh9soYXR-30" value="" style="endArrow=classic;html=1;exitX=0.5;exitY=1;exitDx=0;exitDy=0;entryX=0.5;entryY=0;entryDx=0;entryDy=0;" parent="1" source="7BqJLyiVurSUGh9soYXR-18" target="7BqJLyiVurSUGh9soYXR-20" edge="1">
          <mxGeometry width="50" height="50" relative="1" as="geometry">
            <mxPoint x="565" y="270" as="sourcePoint" />
            <mxPoint x="615" y="220" as="targetPoint" />
          </mxGeometry>
        </mxCell>
        <mxCell id="7BqJLyiVurSUGh9soYXR-31" value="" style="endArrow=classic;html=1;exitX=0.5;exitY=1;exitDx=0;exitDy=0;entryX=0.5;entryY=0;entryDx=0;entryDy=0;" parent="1" source="7BqJLyiVurSUGh9soYXR-25" target="7BqJLyiVurSUGh9soYXR-19" edge="1">
          <mxGeometry width="50" height="50" relative="1" as="geometry">
            <mxPoint x="605" y="785" as="sourcePoint" />
            <mxPoint x="655" y="735" as="targetPoint" />
          </mxGeometry>
        </mxCell>
        <mxCell id="7BqJLyiVurSUGh9soYXR-37" value="" style="edgeStyle=orthogonalEdgeStyle;rounded=0;orthogonalLoop=1;jettySize=auto;html=1;entryX=0;entryY=0.5;entryDx=0;entryDy=0;" parent="1" source="7BqJLyiVurSUGh9soYXR-32" target="7BqJLyiVurSUGh9soYXR-35" edge="1">
          <mxGeometry relative="1" as="geometry">
            <mxPoint x="890" y="535" as="targetPoint" />
          </mxGeometry>
        </mxCell>
        <mxCell id="7BqJLyiVurSUGh9soYXR-38" value="否" style="edgeLabel;html=1;align=center;verticalAlign=middle;resizable=0;points=[];" parent="7BqJLyiVurSUGh9soYXR-37" vertex="1" connectable="0">
          <mxGeometry x="-0.715" relative="1" as="geometry">
            <mxPoint x="17" as="offset" />
          </mxGeometry>
        </mxCell>
        <mxCell id="7BqJLyiVurSUGh9soYXR-32" value="是否有&lt;br&gt;车辆信息" style="rhombus;whiteSpace=wrap;html=1;" parent="1" vertex="1">
          <mxGeometry x="730" y="495" width="80" height="80" as="geometry" />
        </mxCell>
        <mxCell id="7BqJLyiVurSUGh9soYXR-39" style="edgeStyle=orthogonalEdgeStyle;rounded=0;orthogonalLoop=1;jettySize=auto;html=1;entryX=0.5;entryY=0;entryDx=0;entryDy=0;" parent="1" source="7BqJLyiVurSUGh9soYXR-34" target="7BqJLyiVurSUGh9soYXR-35" edge="1">
          <mxGeometry relative="1" as="geometry" />
        </mxCell>
        <mxCell id="7BqJLyiVurSUGh9soYXR-34" value="保存车牌" style="rounded=1;whiteSpace=wrap;html=1;" parent="1" vertex="1">
          <mxGeometry x="970" y="390" width="120" height="60" as="geometry" />
        </mxCell>
        <mxCell id="7BqJLyiVurSUGh9soYXR-41" style="edgeStyle=orthogonalEdgeStyle;rounded=0;orthogonalLoop=1;jettySize=auto;html=1;" parent="1" source="7BqJLyiVurSUGh9soYXR-35" target="7BqJLyiVurSUGh9soYXR-40" edge="1">
          <mxGeometry relative="1" as="geometry" />
        </mxCell>
        <mxCell id="7BqJLyiVurSUGh9soYXR-35" value="从第三方获取数据" style="rounded=1;whiteSpace=wrap;html=1;" parent="1" vertex="1">
          <mxGeometry x="970" y="505" width="120" height="60" as="geometry" />
        </mxCell>
        <mxCell id="7BqJLyiVurSUGh9soYXR-44" style="edgeStyle=orthogonalEdgeStyle;rounded=0;orthogonalLoop=1;jettySize=auto;html=1;entryX=1;entryY=0.5;entryDx=0;entryDy=0;" parent="1" source="7BqJLyiVurSUGh9soYXR-40" target="7BqJLyiVurSUGh9soYXR-25" edge="1">
          <mxGeometry relative="1" as="geometry">
            <Array as="points">
              <mxPoint x="1030" y="725" />
            </Array>
          </mxGeometry>
        </mxCell>
        <mxCell id="7BqJLyiVurSUGh9soYXR-40" value="保存数据" style="rounded=1;whiteSpace=wrap;html=1;" parent="1" vertex="1">
          <mxGeometry x="970" y="625" width="120" height="60" as="geometry" />
        </mxCell>
        <mxCell id="7BqJLyiVurSUGh9soYXR-47" value="vehicle_info_id" style="ellipse;whiteSpace=wrap;html=1;align=center;" parent="1" vertex="1">
          <mxGeometry x="500" y="1390" width="100" height="40" as="geometry" />
        </mxCell>
        <mxCell id="7BqJLyiVurSUGh9soYXR-48" value="" style="endArrow=none;html=1;rounded=0;entryX=1;entryY=0.5;entryDx=0;entryDy=0;exitX=0;exitY=0.25;exitDx=0;exitDy=0;" parent="1" source="8L-nOKBcuhNVsoPlVf19-66" target="7BqJLyiVurSUGh9soYXR-47" edge="1">
          <mxGeometry relative="1" as="geometry">
            <mxPoint x="690" y="1430" as="sourcePoint" />
            <mxPoint x="605.3553390593274" y="1344.142135623731" as="targetPoint" />
          </mxGeometry>
        </mxCell>
        <mxCell id="nscRhLYcsVjDPjzaBj_D-3" value="user" style="swimlane;fontStyle=0;childLayout=stackLayout;horizontal=1;startSize=26;horizontalStack=0;resizeParent=1;resizeParentMax=0;resizeLast=0;collapsible=1;marginBottom=0;align=center;fontSize=14;" vertex="1" parent="1">
          <mxGeometry x="4" y="1682" width="160" height="170" as="geometry">
            <mxRectangle x="4" y="1682" width="60" height="26" as="alternateBounds" />
          </mxGeometry>
        </mxCell>
        <mxCell id="nscRhLYcsVjDPjzaBj_D-4" value="id" style="shape=partialRectangle;top=0;left=0;right=0;bottom=1;align=left;verticalAlign=middle;fillColor=none;spacingLeft=34;spacingRight=4;overflow=hidden;rotatable=0;points=[[0,0.5],[1,0.5]];portConstraint=eastwest;dropTarget=0;fontStyle=5;fontSize=12;" vertex="1" parent="nscRhLYcsVjDPjzaBj_D-3">
          <mxGeometry y="26" width="160" height="30" as="geometry" />
        </mxCell>
        <mxCell id="nscRhLYcsVjDPjzaBj_D-5" value="PK" style="shape=partialRectangle;top=0;left=0;bottom=0;fillColor=none;align=left;verticalAlign=middle;spacingLeft=4;spacingRight=4;overflow=hidden;rotatable=0;points=[];portConstraint=eastwest;part=1;fontSize=12;" vertex="1" connectable="0" parent="nscRhLYcsVjDPjzaBj_D-4">
          <mxGeometry width="30" height="30" as="geometry" />
        </mxCell>
        <mxCell id="nscRhLYcsVjDPjzaBj_D-6" value="username" style="shape=partialRectangle;top=0;left=0;right=0;bottom=0;align=left;verticalAlign=top;fillColor=none;spacingLeft=34;spacingRight=4;overflow=hidden;rotatable=0;points=[[0,0.5],[1,0.5]];portConstraint=eastwest;dropTarget=0;fontSize=12;" vertex="1" parent="nscRhLYcsVjDPjzaBj_D-3">
          <mxGeometry y="56" width="160" height="26" as="geometry" />
        </mxCell>
        <mxCell id="nscRhLYcsVjDPjzaBj_D-7" value="" style="shape=partialRectangle;top=0;left=0;bottom=0;fillColor=none;align=left;verticalAlign=top;spacingLeft=4;spacingRight=4;overflow=hidden;rotatable=0;points=[];portConstraint=eastwest;part=1;fontSize=12;" vertex="1" connectable="0" parent="nscRhLYcsVjDPjzaBj_D-6">
          <mxGeometry width="30" height="26" as="geometry" />
        </mxCell>
        <mxCell id="nscRhLYcsVjDPjzaBj_D-8" value="openid" style="shape=partialRectangle;top=0;left=0;right=0;bottom=0;align=left;verticalAlign=top;fillColor=none;spacingLeft=34;spacingRight=4;overflow=hidden;rotatable=0;points=[[0,0.5],[1,0.5]];portConstraint=eastwest;dropTarget=0;fontSize=12;" vertex="1" parent="nscRhLYcsVjDPjzaBj_D-3">
          <mxGeometry y="82" width="160" height="26" as="geometry" />
        </mxCell>
        <mxCell id="nscRhLYcsVjDPjzaBj_D-9" value="" style="shape=partialRectangle;top=0;left=0;bottom=0;fillColor=none;align=left;verticalAlign=top;spacingLeft=4;spacingRight=4;overflow=hidden;rotatable=0;points=[];portConstraint=eastwest;part=1;fontSize=12;" vertex="1" connectable="0" parent="nscRhLYcsVjDPjzaBj_D-8">
          <mxGeometry width="30" height="26" as="geometry" />
        </mxCell>
        <mxCell id="nscRhLYcsVjDPjzaBj_D-10" value="create_time" style="shape=partialRectangle;top=0;left=0;right=0;bottom=0;align=left;verticalAlign=top;fillColor=none;spacingLeft=34;spacingRight=4;overflow=hidden;rotatable=0;points=[[0,0.5],[1,0.5]];portConstraint=eastwest;dropTarget=0;fontSize=12;" vertex="1" parent="nscRhLYcsVjDPjzaBj_D-3">
          <mxGeometry y="108" width="160" height="26" as="geometry" />
        </mxCell>
        <mxCell id="nscRhLYcsVjDPjzaBj_D-11" value="" style="shape=partialRectangle;top=0;left=0;bottom=0;fillColor=none;align=left;verticalAlign=top;spacingLeft=4;spacingRight=4;overflow=hidden;rotatable=0;points=[];portConstraint=eastwest;part=1;fontSize=12;" vertex="1" connectable="0" parent="nscRhLYcsVjDPjzaBj_D-10">
          <mxGeometry width="30" height="26" as="geometry" />
        </mxCell>
        <mxCell id="nscRhLYcsVjDPjzaBj_D-32" value="status" style="shape=partialRectangle;top=0;left=0;right=0;bottom=0;align=left;verticalAlign=top;fillColor=none;spacingLeft=34;spacingRight=4;overflow=hidden;rotatable=0;points=[[0,0.5],[1,0.5]];portConstraint=eastwest;dropTarget=0;fontSize=12;" vertex="1" parent="nscRhLYcsVjDPjzaBj_D-3">
          <mxGeometry y="134" width="160" height="26" as="geometry" />
        </mxCell>
        <mxCell id="nscRhLYcsVjDPjzaBj_D-33" value="" style="shape=partialRectangle;top=0;left=0;bottom=0;fillColor=none;align=left;verticalAlign=top;spacingLeft=4;spacingRight=4;overflow=hidden;rotatable=0;points=[];portConstraint=eastwest;part=1;fontSize=12;" vertex="1" connectable="0" parent="nscRhLYcsVjDPjzaBj_D-32">
          <mxGeometry width="30" height="26" as="geometry" />
        </mxCell>
        <mxCell id="nscRhLYcsVjDPjzaBj_D-12" value="" style="shape=partialRectangle;top=0;left=0;right=0;bottom=0;align=left;verticalAlign=top;fillColor=none;spacingLeft=34;spacingRight=4;overflow=hidden;rotatable=0;points=[[0,0.5],[1,0.5]];portConstraint=eastwest;dropTarget=0;fontSize=12;" vertex="1" parent="nscRhLYcsVjDPjzaBj_D-3">
          <mxGeometry y="160" width="160" height="10" as="geometry" />
        </mxCell>
        <mxCell id="nscRhLYcsVjDPjzaBj_D-13" value="" style="shape=partialRectangle;top=0;left=0;bottom=0;fillColor=none;align=left;verticalAlign=top;spacingLeft=4;spacingRight=4;overflow=hidden;rotatable=0;points=[];portConstraint=eastwest;part=1;fontSize=12;" vertex="1" connectable="0" parent="nscRhLYcsVjDPjzaBj_D-12">
          <mxGeometry width="30" height="10" as="geometry" />
        </mxCell>
        <mxCell id="nscRhLYcsVjDPjzaBj_D-35" value="req_info" style="swimlane;fontStyle=0;childLayout=stackLayout;horizontal=1;startSize=26;horizontalStack=0;resizeParent=1;resizeParentMax=0;resizeLast=0;collapsible=1;marginBottom=0;align=center;fontSize=14;" vertex="1" parent="1">
          <mxGeometry x="210" y="1682" width="160" height="200" as="geometry">
            <mxRectangle x="4" y="1682" width="60" height="26" as="alternateBounds" />
          </mxGeometry>
        </mxCell>
        <mxCell id="nscRhLYcsVjDPjzaBj_D-36" value="id" style="shape=partialRectangle;top=0;left=0;right=0;bottom=1;align=left;verticalAlign=middle;fillColor=none;spacingLeft=34;spacingRight=4;overflow=hidden;rotatable=0;points=[[0,0.5],[1,0.5]];portConstraint=eastwest;dropTarget=0;fontStyle=5;fontSize=12;" vertex="1" parent="nscRhLYcsVjDPjzaBj_D-35">
          <mxGeometry y="26" width="160" height="30" as="geometry" />
        </mxCell>
        <mxCell id="nscRhLYcsVjDPjzaBj_D-37" value="PK" style="shape=partialRectangle;top=0;left=0;bottom=0;fillColor=none;align=left;verticalAlign=middle;spacingLeft=4;spacingRight=4;overflow=hidden;rotatable=0;points=[];portConstraint=eastwest;part=1;fontSize=12;" vertex="1" connectable="0" parent="nscRhLYcsVjDPjzaBj_D-36">
          <mxGeometry width="30" height="30" as="geometry" />
        </mxCell>
        <mxCell id="nscRhLYcsVjDPjzaBj_D-50" value="user_id" style="shape=partialRectangle;top=0;left=0;right=0;bottom=1;align=left;verticalAlign=middle;fillColor=none;spacingLeft=34;spacingRight=4;overflow=hidden;rotatable=0;points=[[0,0.5],[1,0.5]];portConstraint=eastwest;dropTarget=0;fontStyle=5;fontSize=12;" vertex="1" parent="nscRhLYcsVjDPjzaBj_D-35">
          <mxGeometry y="56" width="160" height="30" as="geometry" />
        </mxCell>
        <mxCell id="nscRhLYcsVjDPjzaBj_D-51" value="FK" style="shape=partialRectangle;top=0;left=0;bottom=0;fillColor=none;align=left;verticalAlign=middle;spacingLeft=4;spacingRight=4;overflow=hidden;rotatable=0;points=[];portConstraint=eastwest;part=1;fontSize=12;" vertex="1" connectable="0" parent="nscRhLYcsVjDPjzaBj_D-50">
          <mxGeometry width="30" height="30" as="geometry" />
        </mxCell>
        <mxCell id="nscRhLYcsVjDPjzaBj_D-38" value="mouth_num" style="shape=partialRectangle;top=0;left=0;right=0;bottom=0;align=left;verticalAlign=top;fillColor=none;spacingLeft=34;spacingRight=4;overflow=hidden;rotatable=0;points=[[0,0.5],[1,0.5]];portConstraint=eastwest;dropTarget=0;fontSize=12;" vertex="1" parent="nscRhLYcsVjDPjzaBj_D-35">
          <mxGeometry y="86" width="160" height="26" as="geometry" />
        </mxCell>
        <mxCell id="nscRhLYcsVjDPjzaBj_D-39" value="" style="shape=partialRectangle;top=0;left=0;bottom=0;fillColor=none;align=left;verticalAlign=top;spacingLeft=4;spacingRight=4;overflow=hidden;rotatable=0;points=[];portConstraint=eastwest;part=1;fontSize=12;" vertex="1" connectable="0" parent="nscRhLYcsVjDPjzaBj_D-38">
          <mxGeometry width="30" height="26" as="geometry" />
        </mxCell>
        <mxCell id="nscRhLYcsVjDPjzaBj_D-40" value="day_num" style="shape=partialRectangle;top=0;left=0;right=0;bottom=0;align=left;verticalAlign=top;fillColor=none;spacingLeft=34;spacingRight=4;overflow=hidden;rotatable=0;points=[[0,0.5],[1,0.5]];portConstraint=eastwest;dropTarget=0;fontSize=12;" vertex="1" parent="nscRhLYcsVjDPjzaBj_D-35">
          <mxGeometry y="112" width="160" height="26" as="geometry" />
        </mxCell>
        <mxCell id="nscRhLYcsVjDPjzaBj_D-41" value="" style="shape=partialRectangle;top=0;left=0;bottom=0;fillColor=none;align=left;verticalAlign=top;spacingLeft=4;spacingRight=4;overflow=hidden;rotatable=0;points=[];portConstraint=eastwest;part=1;fontSize=12;" vertex="1" connectable="0" parent="nscRhLYcsVjDPjzaBj_D-40">
          <mxGeometry width="30" height="26" as="geometry" />
        </mxCell>
        <mxCell id="nscRhLYcsVjDPjzaBj_D-42" value="max_num" style="shape=partialRectangle;top=0;left=0;right=0;bottom=0;align=left;verticalAlign=top;fillColor=none;spacingLeft=34;spacingRight=4;overflow=hidden;rotatable=0;points=[[0,0.5],[1,0.5]];portConstraint=eastwest;dropTarget=0;fontSize=12;" vertex="1" parent="nscRhLYcsVjDPjzaBj_D-35">
          <mxGeometry y="138" width="160" height="26" as="geometry" />
        </mxCell>
        <mxCell id="nscRhLYcsVjDPjzaBj_D-43" value="" style="shape=partialRectangle;top=0;left=0;bottom=0;fillColor=none;align=left;verticalAlign=top;spacingLeft=4;spacingRight=4;overflow=hidden;rotatable=0;points=[];portConstraint=eastwest;part=1;fontSize=12;" vertex="1" connectable="0" parent="nscRhLYcsVjDPjzaBj_D-42">
          <mxGeometry width="30" height="26" as="geometry" />
        </mxCell>
        <mxCell id="nscRhLYcsVjDPjzaBj_D-44" value="create_time" style="shape=partialRectangle;top=0;left=0;right=0;bottom=0;align=left;verticalAlign=top;fillColor=none;spacingLeft=34;spacingRight=4;overflow=hidden;rotatable=0;points=[[0,0.5],[1,0.5]];portConstraint=eastwest;dropTarget=0;fontSize=12;" vertex="1" parent="nscRhLYcsVjDPjzaBj_D-35">
          <mxGeometry y="164" width="160" height="26" as="geometry" />
        </mxCell>
        <mxCell id="nscRhLYcsVjDPjzaBj_D-45" value="" style="shape=partialRectangle;top=0;left=0;bottom=0;fillColor=none;align=left;verticalAlign=top;spacingLeft=4;spacingRight=4;overflow=hidden;rotatable=0;points=[];portConstraint=eastwest;part=1;fontSize=12;" vertex="1" connectable="0" parent="nscRhLYcsVjDPjzaBj_D-44">
          <mxGeometry width="30" height="26" as="geometry" />
        </mxCell>
        <mxCell id="nscRhLYcsVjDPjzaBj_D-46" value="" style="shape=partialRectangle;top=0;left=0;right=0;bottom=0;align=left;verticalAlign=top;fillColor=none;spacingLeft=34;spacingRight=4;overflow=hidden;rotatable=0;points=[[0,0.5],[1,0.5]];portConstraint=eastwest;dropTarget=0;fontSize=12;" vertex="1" parent="nscRhLYcsVjDPjzaBj_D-35">
          <mxGeometry y="190" width="160" height="10" as="geometry" />
        </mxCell>
        <mxCell id="nscRhLYcsVjDPjzaBj_D-47" value="" style="shape=partialRectangle;top=0;left=0;bottom=0;fillColor=none;align=left;verticalAlign=top;spacingLeft=4;spacingRight=4;overflow=hidden;rotatable=0;points=[];portConstraint=eastwest;part=1;fontSize=12;" vertex="1" connectable="0" parent="nscRhLYcsVjDPjzaBj_D-46">
          <mxGeometry width="30" height="10" as="geometry" />
        </mxCell>
        <mxCell id="nscRhLYcsVjDPjzaBj_D-53" value="search_log" style="swimlane;fontStyle=0;childLayout=stackLayout;horizontal=1;startSize=26;horizontalStack=0;resizeParent=1;resizeParentMax=0;resizeLast=0;collapsible=1;marginBottom=0;align=center;fontSize=14;" vertex="1" parent="1">
          <mxGeometry x="430" y="1682" width="160" height="200" as="geometry">
            <mxRectangle x="4" y="1682" width="60" height="26" as="alternateBounds" />
          </mxGeometry>
        </mxCell>
        <mxCell id="nscRhLYcsVjDPjzaBj_D-54" value="id" style="shape=partialRectangle;top=0;left=0;right=0;bottom=1;align=left;verticalAlign=middle;fillColor=none;spacingLeft=34;spacingRight=4;overflow=hidden;rotatable=0;points=[[0,0.5],[1,0.5]];portConstraint=eastwest;dropTarget=0;fontStyle=5;fontSize=12;" vertex="1" parent="nscRhLYcsVjDPjzaBj_D-53">
          <mxGeometry y="26" width="160" height="30" as="geometry" />
        </mxCell>
        <mxCell id="nscRhLYcsVjDPjzaBj_D-55" value="PK" style="shape=partialRectangle;top=0;left=0;bottom=0;fillColor=none;align=left;verticalAlign=middle;spacingLeft=4;spacingRight=4;overflow=hidden;rotatable=0;points=[];portConstraint=eastwest;part=1;fontSize=12;" vertex="1" connectable="0" parent="nscRhLYcsVjDPjzaBj_D-54">
          <mxGeometry width="30" height="30" as="geometry" />
        </mxCell>
        <mxCell id="nscRhLYcsVjDPjzaBj_D-56" value="user_id" style="shape=partialRectangle;top=0;left=0;right=0;bottom=1;align=left;verticalAlign=middle;fillColor=none;spacingLeft=34;spacingRight=4;overflow=hidden;rotatable=0;points=[[0,0.5],[1,0.5]];portConstraint=eastwest;dropTarget=0;fontStyle=5;fontSize=12;" vertex="1" parent="nscRhLYcsVjDPjzaBj_D-53">
          <mxGeometry y="56" width="160" height="30" as="geometry" />
        </mxCell>
        <mxCell id="nscRhLYcsVjDPjzaBj_D-57" value="FK" style="shape=partialRectangle;top=0;left=0;bottom=0;fillColor=none;align=left;verticalAlign=middle;spacingLeft=4;spacingRight=4;overflow=hidden;rotatable=0;points=[];portConstraint=eastwest;part=1;fontSize=12;" vertex="1" connectable="0" parent="nscRhLYcsVjDPjzaBj_D-56">
          <mxGeometry width="30" height="30" as="geometry" />
        </mxCell>
        <mxCell id="nscRhLYcsVjDPjzaBj_D-58" value="mouth_num" style="shape=partialRectangle;top=0;left=0;right=0;bottom=0;align=left;verticalAlign=top;fillColor=none;spacingLeft=34;spacingRight=4;overflow=hidden;rotatable=0;points=[[0,0.5],[1,0.5]];portConstraint=eastwest;dropTarget=0;fontSize=12;" vertex="1" parent="nscRhLYcsVjDPjzaBj_D-53">
          <mxGeometry y="86" width="160" height="26" as="geometry" />
        </mxCell>
        <mxCell id="nscRhLYcsVjDPjzaBj_D-59" value="" style="shape=partialRectangle;top=0;left=0;bottom=0;fillColor=none;align=left;verticalAlign=top;spacingLeft=4;spacingRight=4;overflow=hidden;rotatable=0;points=[];portConstraint=eastwest;part=1;fontSize=12;" vertex="1" connectable="0" parent="nscRhLYcsVjDPjzaBj_D-58">
          <mxGeometry width="30" height="26" as="geometry" />
        </mxCell>
        <mxCell id="nscRhLYcsVjDPjzaBj_D-60" value="day_num" style="shape=partialRectangle;top=0;left=0;right=0;bottom=0;align=left;verticalAlign=top;fillColor=none;spacingLeft=34;spacingRight=4;overflow=hidden;rotatable=0;points=[[0,0.5],[1,0.5]];portConstraint=eastwest;dropTarget=0;fontSize=12;" vertex="1" parent="nscRhLYcsVjDPjzaBj_D-53">
          <mxGeometry y="112" width="160" height="26" as="geometry" />
        </mxCell>
        <mxCell id="nscRhLYcsVjDPjzaBj_D-61" value="" style="shape=partialRectangle;top=0;left=0;bottom=0;fillColor=none;align=left;verticalAlign=top;spacingLeft=4;spacingRight=4;overflow=hidden;rotatable=0;points=[];portConstraint=eastwest;part=1;fontSize=12;" vertex="1" connectable="0" parent="nscRhLYcsVjDPjzaBj_D-60">
          <mxGeometry width="30" height="26" as="geometry" />
        </mxCell>
        <mxCell id="nscRhLYcsVjDPjzaBj_D-62" value="max_num" style="shape=partialRectangle;top=0;left=0;right=0;bottom=0;align=left;verticalAlign=top;fillColor=none;spacingLeft=34;spacingRight=4;overflow=hidden;rotatable=0;points=[[0,0.5],[1,0.5]];portConstraint=eastwest;dropTarget=0;fontSize=12;" vertex="1" parent="nscRhLYcsVjDPjzaBj_D-53">
          <mxGeometry y="138" width="160" height="26" as="geometry" />
        </mxCell>
        <mxCell id="nscRhLYcsVjDPjzaBj_D-63" value="" style="shape=partialRectangle;top=0;left=0;bottom=0;fillColor=none;align=left;verticalAlign=top;spacingLeft=4;spacingRight=4;overflow=hidden;rotatable=0;points=[];portConstraint=eastwest;part=1;fontSize=12;" vertex="1" connectable="0" parent="nscRhLYcsVjDPjzaBj_D-62">
          <mxGeometry width="30" height="26" as="geometry" />
        </mxCell>
        <mxCell id="nscRhLYcsVjDPjzaBj_D-64" value="create_time" style="shape=partialRectangle;top=0;left=0;right=0;bottom=0;align=left;verticalAlign=top;fillColor=none;spacingLeft=34;spacingRight=4;overflow=hidden;rotatable=0;points=[[0,0.5],[1,0.5]];portConstraint=eastwest;dropTarget=0;fontSize=12;" vertex="1" parent="nscRhLYcsVjDPjzaBj_D-53">
          <mxGeometry y="164" width="160" height="26" as="geometry" />
        </mxCell>
        <mxCell id="nscRhLYcsVjDPjzaBj_D-65" value="" style="shape=partialRectangle;top=0;left=0;bottom=0;fillColor=none;align=left;verticalAlign=top;spacingLeft=4;spacingRight=4;overflow=hidden;rotatable=0;points=[];portConstraint=eastwest;part=1;fontSize=12;" vertex="1" connectable="0" parent="nscRhLYcsVjDPjzaBj_D-64">
          <mxGeometry width="30" height="26" as="geometry" />
        </mxCell>
        <mxCell id="nscRhLYcsVjDPjzaBj_D-66" value="" style="shape=partialRectangle;top=0;left=0;right=0;bottom=0;align=left;verticalAlign=top;fillColor=none;spacingLeft=34;spacingRight=4;overflow=hidden;rotatable=0;points=[[0,0.5],[1,0.5]];portConstraint=eastwest;dropTarget=0;fontSize=12;" vertex="1" parent="nscRhLYcsVjDPjzaBj_D-53">
          <mxGeometry y="190" width="160" height="10" as="geometry" />
        </mxCell>
        <mxCell id="nscRhLYcsVjDPjzaBj_D-67" value="" style="shape=partialRectangle;top=0;left=0;bottom=0;fillColor=none;align=left;verticalAlign=top;spacingLeft=4;spacingRight=4;overflow=hidden;rotatable=0;points=[];portConstraint=eastwest;part=1;fontSize=12;" vertex="1" connectable="0" parent="nscRhLYcsVjDPjzaBj_D-66">
          <mxGeometry width="30" height="10" as="geometry" />
        </mxCell>
      </root>
    </mxGraphModel>
  </diagram>
</mxfile>
